<svg xmlns="http://www.w3.org/2000/svg" width="23.017" height="23.017" viewBox="0 0 23.017 23.017">
  <path id="Icon_metro-cross" data-name="Icon metro-cross" d="M24.36,19.594h0l-6.671-6.671L24.36,6.252h0a.689.689,0,0,0,0-.972L21.209,2.129a.689.689,0,0,0-.972,0h0L13.566,8.8,6.895,2.129h0a.689.689,0,0,0-.972,0L2.772,5.28a.689.689,0,0,0,0,.972h0l6.671,6.671L2.772,19.594h0a.689.689,0,0,0,0,.972l3.151,3.151a.689.689,0,0,0,.972,0h0l6.671-6.671,6.671,6.671h0a.689.689,0,0,0,.972,0l3.151-3.151a.689.689,0,0,0,0-.972Z" transform="translate(-2.057 -1.415)" fill="#edf0f2" stroke="#edf0f2" stroke-width="1"/>
</svg>